<mxfile host="app.diagrams.net" modified="2022-09-29T04:42:55.555Z" agent="5.0 (Windows NT 10.0; Win64; x64) AppleWebKit/537.36 (KHTML, like Gecko) Chrome/105.0.0.0 Safari/537.36" etag="lq4olE-ypt0HikkAThb9" version="20.3.7" type="github">
  <diagram id="5C6EwOf_Wa-gGO12jq7W" name="Página-1">
    <mxGraphModel dx="4424" dy="1205" grid="1" gridSize="10" guides="1" tooltips="1" connect="1" arrows="1" fold="1" page="1" pageScale="1" pageWidth="827" pageHeight="1169" math="0" shadow="0">
      <root>
        <mxCell id="0" />
        <mxCell id="1" parent="0" />
        <mxCell id="Lc9naHNw8LYEpgLvx75e-236" style="edgeStyle=orthogonalEdgeStyle;rounded=0;orthogonalLoop=1;jettySize=auto;html=1;" edge="1" parent="1" source="Lc9naHNw8LYEpgLvx75e-1">
          <mxGeometry relative="1" as="geometry">
            <mxPoint x="100" y="250" as="targetPoint" />
          </mxGeometry>
        </mxCell>
        <mxCell id="Lc9naHNw8LYEpgLvx75e-1" value="&lt;font style=&quot;vertical-align: inherit;&quot;&gt;&lt;font style=&quot;vertical-align: inherit;&quot;&gt;Organización de fiesta de promoción&lt;/font&gt;&lt;/font&gt;" style="rounded=1;whiteSpace=wrap;html=1;" vertex="1" parent="1">
          <mxGeometry x="40" y="40" width="120" height="60" as="geometry" />
        </mxCell>
        <mxCell id="Lc9naHNw8LYEpgLvx75e-111" value="" style="edgeStyle=orthogonalEdgeStyle;rounded=0;orthogonalLoop=1;jettySize=auto;html=1;" edge="1" parent="1" source="Lc9naHNw8LYEpgLvx75e-2" target="Lc9naHNw8LYEpgLvx75e-73">
          <mxGeometry relative="1" as="geometry" />
        </mxCell>
        <mxCell id="Lc9naHNw8LYEpgLvx75e-2" value="&lt;font style=&quot;vertical-align: inherit;&quot;&gt;&lt;font style=&quot;vertical-align: inherit;&quot;&gt;Comisión 2&lt;/font&gt;&lt;/font&gt;" style="rounded=1;whiteSpace=wrap;html=1;" vertex="1" parent="1">
          <mxGeometry x="550" y="215" width="120" height="60" as="geometry" />
        </mxCell>
        <mxCell id="Lc9naHNw8LYEpgLvx75e-17" value="" style="edgeStyle=orthogonalEdgeStyle;rounded=0;orthogonalLoop=1;jettySize=auto;html=1;" edge="1" parent="1" source="Lc9naHNw8LYEpgLvx75e-3" target="Lc9naHNw8LYEpgLvx75e-9">
          <mxGeometry relative="1" as="geometry" />
        </mxCell>
        <mxCell id="Lc9naHNw8LYEpgLvx75e-3" value="&lt;font style=&quot;vertical-align: inherit;&quot;&gt;&lt;font style=&quot;vertical-align: inherit;&quot;&gt;Comisión 1&lt;/font&gt;&lt;/font&gt;" style="rounded=1;whiteSpace=wrap;html=1;" vertex="1" parent="1">
          <mxGeometry x="-350" y="215" width="120" height="60" as="geometry" />
        </mxCell>
        <mxCell id="Lc9naHNw8LYEpgLvx75e-132" value="" style="edgeStyle=orthogonalEdgeStyle;rounded=0;orthogonalLoop=1;jettySize=auto;html=1;" edge="1" parent="1" source="Lc9naHNw8LYEpgLvx75e-4" target="Lc9naHNw8LYEpgLvx75e-113">
          <mxGeometry relative="1" as="geometry" />
        </mxCell>
        <mxCell id="Lc9naHNw8LYEpgLvx75e-4" value="&lt;font style=&quot;vertical-align: inherit;&quot;&gt;&lt;font style=&quot;vertical-align: inherit;&quot;&gt;Comisión 3&lt;/font&gt;&lt;/font&gt;" style="rounded=1;whiteSpace=wrap;html=1;" vertex="1" parent="1">
          <mxGeometry x="1270" y="220" width="120" height="60" as="geometry" />
        </mxCell>
        <mxCell id="Lc9naHNw8LYEpgLvx75e-16" value="" style="edgeStyle=orthogonalEdgeStyle;rounded=0;orthogonalLoop=1;jettySize=auto;html=1;" edge="1" parent="1" source="Lc9naHNw8LYEpgLvx75e-9" target="Lc9naHNw8LYEpgLvx75e-11">
          <mxGeometry relative="1" as="geometry" />
        </mxCell>
        <mxCell id="Lc9naHNw8LYEpgLvx75e-9" value="Jimy&lt;span style=&quot;white-space: pre;&quot;&gt;	&lt;/span&gt;" style="rounded=1;whiteSpace=wrap;html=1;" vertex="1" parent="1">
          <mxGeometry x="-350" y="355" width="120" height="60" as="geometry" />
        </mxCell>
        <mxCell id="Lc9naHNw8LYEpgLvx75e-11" value="" style="rounded=0;whiteSpace=wrap;html=1;" vertex="1" parent="1">
          <mxGeometry x="-350" y="455" width="120" height="60" as="geometry" />
        </mxCell>
        <mxCell id="Lc9naHNw8LYEpgLvx75e-13" value="" style="rounded=0;whiteSpace=wrap;html=1;" vertex="1" parent="1">
          <mxGeometry x="-660" y="455" width="120" height="60" as="geometry" />
        </mxCell>
        <mxCell id="Lc9naHNw8LYEpgLvx75e-21" value="" style="endArrow=none;html=1;rounded=0;entryX=0;entryY=0.5;entryDx=0;entryDy=0;exitX=1;exitY=0.5;exitDx=0;exitDy=0;" edge="1" parent="1" source="Lc9naHNw8LYEpgLvx75e-13" target="Lc9naHNw8LYEpgLvx75e-11">
          <mxGeometry width="50" height="50" relative="1" as="geometry">
            <mxPoint x="-620" y="465" as="sourcePoint" />
            <mxPoint x="-590" y="485" as="targetPoint" />
            <Array as="points">
              <mxPoint x="-490" y="485" />
            </Array>
          </mxGeometry>
        </mxCell>
        <mxCell id="Lc9naHNw8LYEpgLvx75e-22" value="" style="rounded=0;whiteSpace=wrap;html=1;" vertex="1" parent="1">
          <mxGeometry x="-40" y="455" width="120" height="60" as="geometry" />
        </mxCell>
        <mxCell id="Lc9naHNw8LYEpgLvx75e-24" value="" style="endArrow=none;html=1;rounded=0;exitX=1;exitY=0.5;exitDx=0;exitDy=0;entryX=0;entryY=0.5;entryDx=0;entryDy=0;" edge="1" parent="1" source="Lc9naHNw8LYEpgLvx75e-11" target="Lc9naHNw8LYEpgLvx75e-22">
          <mxGeometry width="50" height="50" relative="1" as="geometry">
            <mxPoint x="-150" y="615" as="sourcePoint" />
            <mxPoint x="-100" y="565" as="targetPoint" />
          </mxGeometry>
        </mxCell>
        <mxCell id="Lc9naHNw8LYEpgLvx75e-25" value="" style="rounded=0;whiteSpace=wrap;html=1;" vertex="1" parent="1">
          <mxGeometry x="-660" y="575" width="120" height="60" as="geometry" />
        </mxCell>
        <mxCell id="Lc9naHNw8LYEpgLvx75e-26" value="" style="rounded=0;whiteSpace=wrap;html=1;" vertex="1" parent="1">
          <mxGeometry x="-660" y="675" width="120" height="60" as="geometry" />
        </mxCell>
        <mxCell id="Lc9naHNw8LYEpgLvx75e-27" value="" style="rounded=0;whiteSpace=wrap;html=1;" vertex="1" parent="1">
          <mxGeometry x="-660" y="775" width="120" height="60" as="geometry" />
        </mxCell>
        <mxCell id="Lc9naHNw8LYEpgLvx75e-28" value="" style="rounded=0;whiteSpace=wrap;html=1;" vertex="1" parent="1">
          <mxGeometry x="-660" y="875" width="120" height="60" as="geometry" />
        </mxCell>
        <mxCell id="Lc9naHNw8LYEpgLvx75e-29" value="" style="rounded=0;whiteSpace=wrap;html=1;" vertex="1" parent="1">
          <mxGeometry x="-660" y="975" width="120" height="60" as="geometry" />
        </mxCell>
        <mxCell id="Lc9naHNw8LYEpgLvx75e-32" value="" style="endArrow=none;html=1;rounded=0;" edge="1" parent="1">
          <mxGeometry width="50" height="50" relative="1" as="geometry">
            <mxPoint x="-470" y="905" as="sourcePoint" />
            <mxPoint x="-290" y="535" as="targetPoint" />
            <Array as="points">
              <mxPoint x="-470" y="535" />
              <mxPoint x="-420" y="535" />
            </Array>
          </mxGeometry>
        </mxCell>
        <mxCell id="Lc9naHNw8LYEpgLvx75e-34" value="" style="endArrow=none;html=1;rounded=0;entryX=0;entryY=0.5;entryDx=0;entryDy=0;" edge="1" parent="1" target="Lc9naHNw8LYEpgLvx75e-25">
          <mxGeometry width="50" height="50" relative="1" as="geometry">
            <mxPoint x="-780" y="605" as="sourcePoint" />
            <mxPoint x="-540" y="705" as="targetPoint" />
          </mxGeometry>
        </mxCell>
        <mxCell id="Lc9naHNw8LYEpgLvx75e-35" value="" style="endArrow=none;html=1;rounded=0;entryX=0;entryY=0.5;entryDx=0;entryDy=0;" edge="1" parent="1" target="Lc9naHNw8LYEpgLvx75e-26">
          <mxGeometry width="50" height="50" relative="1" as="geometry">
            <mxPoint x="-780" y="705" as="sourcePoint" />
            <mxPoint x="-540" y="705" as="targetPoint" />
          </mxGeometry>
        </mxCell>
        <mxCell id="Lc9naHNw8LYEpgLvx75e-36" value="" style="endArrow=none;html=1;rounded=0;entryX=0;entryY=0.5;entryDx=0;entryDy=0;" edge="1" parent="1" target="Lc9naHNw8LYEpgLvx75e-27">
          <mxGeometry width="50" height="50" relative="1" as="geometry">
            <mxPoint x="-780" y="805" as="sourcePoint" />
            <mxPoint x="-540" y="705" as="targetPoint" />
          </mxGeometry>
        </mxCell>
        <mxCell id="Lc9naHNw8LYEpgLvx75e-37" value="" style="endArrow=none;html=1;rounded=0;entryX=0;entryY=0.5;entryDx=0;entryDy=0;" edge="1" parent="1" target="Lc9naHNw8LYEpgLvx75e-28">
          <mxGeometry width="50" height="50" relative="1" as="geometry">
            <mxPoint x="-780" y="905" as="sourcePoint" />
            <mxPoint x="-540" y="865" as="targetPoint" />
          </mxGeometry>
        </mxCell>
        <mxCell id="Lc9naHNw8LYEpgLvx75e-38" value="" style="endArrow=none;html=1;rounded=0;entryX=0;entryY=0.5;entryDx=0;entryDy=0;" edge="1" parent="1">
          <mxGeometry width="50" height="50" relative="1" as="geometry">
            <mxPoint x="-780" y="1005" as="sourcePoint" />
            <mxPoint x="-660" y="1005" as="targetPoint" />
          </mxGeometry>
        </mxCell>
        <mxCell id="Lc9naHNw8LYEpgLvx75e-39" value="" style="endArrow=none;html=1;rounded=0;entryX=0.5;entryY=1;entryDx=0;entryDy=0;exitX=0.5;exitY=0;exitDx=0;exitDy=0;" edge="1" parent="1" source="Lc9naHNw8LYEpgLvx75e-25" target="Lc9naHNw8LYEpgLvx75e-13">
          <mxGeometry width="50" height="50" relative="1" as="geometry">
            <mxPoint x="-590" y="605" as="sourcePoint" />
            <mxPoint x="-540" y="555" as="targetPoint" />
          </mxGeometry>
        </mxCell>
        <mxCell id="Lc9naHNw8LYEpgLvx75e-54" value="" style="rounded=0;whiteSpace=wrap;html=1;" vertex="1" parent="1">
          <mxGeometry x="-350" y="575" width="120" height="60" as="geometry" />
        </mxCell>
        <mxCell id="Lc9naHNw8LYEpgLvx75e-55" value="" style="rounded=0;whiteSpace=wrap;html=1;" vertex="1" parent="1">
          <mxGeometry x="-350" y="675" width="120" height="60" as="geometry" />
        </mxCell>
        <mxCell id="Lc9naHNw8LYEpgLvx75e-56" value="" style="rounded=0;whiteSpace=wrap;html=1;" vertex="1" parent="1">
          <mxGeometry x="-350" y="775" width="120" height="60" as="geometry" />
        </mxCell>
        <mxCell id="Lc9naHNw8LYEpgLvx75e-57" value="" style="rounded=0;whiteSpace=wrap;html=1;" vertex="1" parent="1">
          <mxGeometry x="-350" y="875" width="120" height="60" as="geometry" />
        </mxCell>
        <mxCell id="Lc9naHNw8LYEpgLvx75e-58" value="" style="endArrow=none;html=1;rounded=0;entryX=0;entryY=0.5;entryDx=0;entryDy=0;" edge="1" target="Lc9naHNw8LYEpgLvx75e-54" parent="1">
          <mxGeometry width="50" height="50" relative="1" as="geometry">
            <mxPoint x="-470" y="605" as="sourcePoint" />
            <mxPoint x="-230" y="705" as="targetPoint" />
          </mxGeometry>
        </mxCell>
        <mxCell id="Lc9naHNw8LYEpgLvx75e-59" value="" style="endArrow=none;html=1;rounded=0;entryX=0;entryY=0.5;entryDx=0;entryDy=0;" edge="1" target="Lc9naHNw8LYEpgLvx75e-55" parent="1">
          <mxGeometry width="50" height="50" relative="1" as="geometry">
            <mxPoint x="-470" y="705" as="sourcePoint" />
            <mxPoint x="-230" y="705" as="targetPoint" />
          </mxGeometry>
        </mxCell>
        <mxCell id="Lc9naHNw8LYEpgLvx75e-60" value="" style="endArrow=none;html=1;rounded=0;entryX=0;entryY=0.5;entryDx=0;entryDy=0;" edge="1" target="Lc9naHNw8LYEpgLvx75e-56" parent="1">
          <mxGeometry width="50" height="50" relative="1" as="geometry">
            <mxPoint x="-470" y="805" as="sourcePoint" />
            <mxPoint x="-230" y="705" as="targetPoint" />
          </mxGeometry>
        </mxCell>
        <mxCell id="Lc9naHNw8LYEpgLvx75e-61" value="" style="endArrow=none;html=1;rounded=0;entryX=0;entryY=0.5;entryDx=0;entryDy=0;" edge="1" target="Lc9naHNw8LYEpgLvx75e-57" parent="1">
          <mxGeometry width="50" height="50" relative="1" as="geometry">
            <mxPoint x="-470" y="905" as="sourcePoint" />
            <mxPoint x="-230" y="865" as="targetPoint" />
          </mxGeometry>
        </mxCell>
        <mxCell id="Lc9naHNw8LYEpgLvx75e-62" value="" style="endArrow=none;html=1;rounded=0;entryX=0.5;entryY=1;entryDx=0;entryDy=0;exitX=0.5;exitY=0;exitDx=0;exitDy=0;" edge="1" source="Lc9naHNw8LYEpgLvx75e-54" parent="1">
          <mxGeometry width="50" height="50" relative="1" as="geometry">
            <mxPoint x="-280" y="605" as="sourcePoint" />
            <mxPoint x="-290" y="515" as="targetPoint" />
          </mxGeometry>
        </mxCell>
        <mxCell id="Lc9naHNw8LYEpgLvx75e-63" value="" style="endArrow=none;html=1;rounded=0;" edge="1" parent="1">
          <mxGeometry width="50" height="50" relative="1" as="geometry">
            <mxPoint x="-780" y="1005" as="sourcePoint" />
            <mxPoint x="-780" y="605" as="targetPoint" />
          </mxGeometry>
        </mxCell>
        <mxCell id="Lc9naHNw8LYEpgLvx75e-65" value="" style="rounded=0;whiteSpace=wrap;html=1;" vertex="1" parent="1">
          <mxGeometry x="-40" y="575" width="120" height="60" as="geometry" />
        </mxCell>
        <mxCell id="Lc9naHNw8LYEpgLvx75e-66" value="" style="rounded=0;whiteSpace=wrap;html=1;" vertex="1" parent="1">
          <mxGeometry x="-40" y="675" width="120" height="60" as="geometry" />
        </mxCell>
        <mxCell id="Lc9naHNw8LYEpgLvx75e-67" value="" style="endArrow=none;html=1;rounded=0;entryX=0;entryY=0.5;entryDx=0;entryDy=0;" edge="1" target="Lc9naHNw8LYEpgLvx75e-65" parent="1">
          <mxGeometry width="50" height="50" relative="1" as="geometry">
            <mxPoint x="-160.00000000000023" y="605" as="sourcePoint" />
            <mxPoint x="80" y="705" as="targetPoint" />
          </mxGeometry>
        </mxCell>
        <mxCell id="Lc9naHNw8LYEpgLvx75e-68" value="" style="endArrow=none;html=1;rounded=0;entryX=0;entryY=0.5;entryDx=0;entryDy=0;" edge="1" target="Lc9naHNw8LYEpgLvx75e-66" parent="1">
          <mxGeometry width="50" height="50" relative="1" as="geometry">
            <mxPoint x="-160.00000000000023" y="705" as="sourcePoint" />
            <mxPoint x="80" y="705" as="targetPoint" />
          </mxGeometry>
        </mxCell>
        <mxCell id="Lc9naHNw8LYEpgLvx75e-69" value="" style="endArrow=none;html=1;rounded=0;entryX=0.5;entryY=1;entryDx=0;entryDy=0;exitX=0.5;exitY=0;exitDx=0;exitDy=0;" edge="1" parent="1" source="Lc9naHNw8LYEpgLvx75e-54">
          <mxGeometry width="50" height="50" relative="1" as="geometry">
            <mxPoint x="-290.0000000000002" y="575" as="sourcePoint" />
            <mxPoint x="-290.0000000000002" y="515" as="targetPoint" />
            <Array as="points">
              <mxPoint x="-290" y="545" />
            </Array>
          </mxGeometry>
        </mxCell>
        <mxCell id="Lc9naHNw8LYEpgLvx75e-70" value="" style="endArrow=none;html=1;rounded=0;entryX=0.5;entryY=1;entryDx=0;entryDy=0;exitX=0.5;exitY=0;exitDx=0;exitDy=0;" edge="1" parent="1">
          <mxGeometry width="50" height="50" relative="1" as="geometry">
            <mxPoint x="29.999999999999773" y="575" as="sourcePoint" />
            <mxPoint x="29.999999999999773" y="515" as="targetPoint" />
            <Array as="points">
              <mxPoint x="30" y="545" />
            </Array>
          </mxGeometry>
        </mxCell>
        <mxCell id="Lc9naHNw8LYEpgLvx75e-71" value="" style="endArrow=none;html=1;rounded=0;" edge="1" parent="1">
          <mxGeometry width="50" height="50" relative="1" as="geometry">
            <mxPoint x="-160" y="705" as="sourcePoint" />
            <mxPoint x="-160" y="605" as="targetPoint" />
          </mxGeometry>
        </mxCell>
        <mxCell id="Lc9naHNw8LYEpgLvx75e-300" value="" style="edgeStyle=orthogonalEdgeStyle;rounded=0;orthogonalLoop=1;jettySize=auto;html=1;" edge="1" parent="1" source="Lc9naHNw8LYEpgLvx75e-73">
          <mxGeometry relative="1" as="geometry">
            <mxPoint x="610" y="490" as="targetPoint" />
          </mxGeometry>
        </mxCell>
        <mxCell id="Lc9naHNw8LYEpgLvx75e-73" value="Daniel" style="rounded=1;whiteSpace=wrap;html=1;" vertex="1" parent="1">
          <mxGeometry x="550" y="365" width="120" height="60" as="geometry" />
        </mxCell>
        <mxCell id="Lc9naHNw8LYEpgLvx75e-74" value="" style="rounded=0;whiteSpace=wrap;html=1;" vertex="1" parent="1">
          <mxGeometry x="720" y="460" width="120" height="60" as="geometry" />
        </mxCell>
        <mxCell id="Lc9naHNw8LYEpgLvx75e-75" value="" style="rounded=0;whiteSpace=wrap;html=1;" vertex="1" parent="1">
          <mxGeometry x="410" y="460" width="120" height="60" as="geometry" />
        </mxCell>
        <mxCell id="Lc9naHNw8LYEpgLvx75e-76" value="" style="endArrow=none;html=1;rounded=0;entryX=0;entryY=0.5;entryDx=0;entryDy=0;exitX=1;exitY=0.5;exitDx=0;exitDy=0;" edge="1" source="Lc9naHNw8LYEpgLvx75e-75" target="Lc9naHNw8LYEpgLvx75e-74" parent="1">
          <mxGeometry width="50" height="50" relative="1" as="geometry">
            <mxPoint x="450" y="470" as="sourcePoint" />
            <mxPoint x="480" y="490" as="targetPoint" />
            <Array as="points">
              <mxPoint x="580" y="490" />
            </Array>
          </mxGeometry>
        </mxCell>
        <mxCell id="Lc9naHNw8LYEpgLvx75e-77" value="" style="rounded=0;whiteSpace=wrap;html=1;" vertex="1" parent="1">
          <mxGeometry x="410" y="580" width="120" height="60" as="geometry" />
        </mxCell>
        <mxCell id="Lc9naHNw8LYEpgLvx75e-78" value="" style="rounded=0;whiteSpace=wrap;html=1;" vertex="1" parent="1">
          <mxGeometry x="410" y="680" width="120" height="60" as="geometry" />
        </mxCell>
        <mxCell id="Lc9naHNw8LYEpgLvx75e-79" value="" style="rounded=0;whiteSpace=wrap;html=1;" vertex="1" parent="1">
          <mxGeometry x="410" y="780" width="120" height="60" as="geometry" />
        </mxCell>
        <mxCell id="Lc9naHNw8LYEpgLvx75e-80" value="" style="rounded=0;whiteSpace=wrap;html=1;" vertex="1" parent="1">
          <mxGeometry x="410" y="880" width="120" height="60" as="geometry" />
        </mxCell>
        <mxCell id="Lc9naHNw8LYEpgLvx75e-81" value="" style="endArrow=none;html=1;rounded=0;" edge="1" parent="1">
          <mxGeometry width="50" height="50" relative="1" as="geometry">
            <mxPoint x="600" y="1010" as="sourcePoint" />
            <mxPoint x="780" y="540" as="targetPoint" />
            <Array as="points">
              <mxPoint x="600" y="540" />
              <mxPoint x="650" y="540" />
            </Array>
          </mxGeometry>
        </mxCell>
        <mxCell id="Lc9naHNw8LYEpgLvx75e-82" value="" style="endArrow=none;html=1;rounded=0;entryX=0;entryY=0.5;entryDx=0;entryDy=0;" edge="1" target="Lc9naHNw8LYEpgLvx75e-77" parent="1">
          <mxGeometry width="50" height="50" relative="1" as="geometry">
            <mxPoint x="290" y="610" as="sourcePoint" />
            <mxPoint x="530" y="710" as="targetPoint" />
          </mxGeometry>
        </mxCell>
        <mxCell id="Lc9naHNw8LYEpgLvx75e-83" value="" style="endArrow=none;html=1;rounded=0;entryX=0;entryY=0.5;entryDx=0;entryDy=0;" edge="1" target="Lc9naHNw8LYEpgLvx75e-78" parent="1">
          <mxGeometry width="50" height="50" relative="1" as="geometry">
            <mxPoint x="290" y="710" as="sourcePoint" />
            <mxPoint x="530" y="710" as="targetPoint" />
          </mxGeometry>
        </mxCell>
        <mxCell id="Lc9naHNw8LYEpgLvx75e-84" value="" style="endArrow=none;html=1;rounded=0;entryX=0;entryY=0.5;entryDx=0;entryDy=0;" edge="1" target="Lc9naHNw8LYEpgLvx75e-79" parent="1">
          <mxGeometry width="50" height="50" relative="1" as="geometry">
            <mxPoint x="290" y="810" as="sourcePoint" />
            <mxPoint x="530" y="710" as="targetPoint" />
          </mxGeometry>
        </mxCell>
        <mxCell id="Lc9naHNw8LYEpgLvx75e-85" value="" style="endArrow=none;html=1;rounded=0;entryX=0;entryY=0.5;entryDx=0;entryDy=0;" edge="1" target="Lc9naHNw8LYEpgLvx75e-80" parent="1">
          <mxGeometry width="50" height="50" relative="1" as="geometry">
            <mxPoint x="290" y="910" as="sourcePoint" />
            <mxPoint x="530" y="870" as="targetPoint" />
          </mxGeometry>
        </mxCell>
        <mxCell id="Lc9naHNw8LYEpgLvx75e-87" value="" style="endArrow=none;html=1;rounded=0;entryX=0.5;entryY=1;entryDx=0;entryDy=0;exitX=0.5;exitY=0;exitDx=0;exitDy=0;" edge="1" source="Lc9naHNw8LYEpgLvx75e-77" target="Lc9naHNw8LYEpgLvx75e-75" parent="1">
          <mxGeometry width="50" height="50" relative="1" as="geometry">
            <mxPoint x="480" y="610" as="sourcePoint" />
            <mxPoint x="530" y="560" as="targetPoint" />
          </mxGeometry>
        </mxCell>
        <mxCell id="Lc9naHNw8LYEpgLvx75e-88" value="" style="rounded=0;whiteSpace=wrap;html=1;" vertex="1" parent="1">
          <mxGeometry x="720" y="580" width="120" height="60" as="geometry" />
        </mxCell>
        <mxCell id="Lc9naHNw8LYEpgLvx75e-89" value="" style="rounded=0;whiteSpace=wrap;html=1;" vertex="1" parent="1">
          <mxGeometry x="720" y="680" width="120" height="60" as="geometry" />
        </mxCell>
        <mxCell id="Lc9naHNw8LYEpgLvx75e-90" value="" style="rounded=0;whiteSpace=wrap;html=1;" vertex="1" parent="1">
          <mxGeometry x="720" y="780" width="120" height="60" as="geometry" />
        </mxCell>
        <mxCell id="Lc9naHNw8LYEpgLvx75e-91" value="" style="rounded=0;whiteSpace=wrap;html=1;" vertex="1" parent="1">
          <mxGeometry x="720" y="880" width="120" height="60" as="geometry" />
        </mxCell>
        <mxCell id="Lc9naHNw8LYEpgLvx75e-92" value="" style="endArrow=none;html=1;rounded=0;entryX=0;entryY=0.5;entryDx=0;entryDy=0;" edge="1" target="Lc9naHNw8LYEpgLvx75e-88" parent="1">
          <mxGeometry width="50" height="50" relative="1" as="geometry">
            <mxPoint x="600" y="610" as="sourcePoint" />
            <mxPoint x="840" y="710" as="targetPoint" />
          </mxGeometry>
        </mxCell>
        <mxCell id="Lc9naHNw8LYEpgLvx75e-93" value="" style="endArrow=none;html=1;rounded=0;entryX=0;entryY=0.5;entryDx=0;entryDy=0;" edge="1" target="Lc9naHNw8LYEpgLvx75e-89" parent="1">
          <mxGeometry width="50" height="50" relative="1" as="geometry">
            <mxPoint x="600" y="710" as="sourcePoint" />
            <mxPoint x="840" y="710" as="targetPoint" />
          </mxGeometry>
        </mxCell>
        <mxCell id="Lc9naHNw8LYEpgLvx75e-94" value="" style="endArrow=none;html=1;rounded=0;entryX=0;entryY=0.5;entryDx=0;entryDy=0;" edge="1" target="Lc9naHNw8LYEpgLvx75e-90" parent="1">
          <mxGeometry width="50" height="50" relative="1" as="geometry">
            <mxPoint x="600" y="810" as="sourcePoint" />
            <mxPoint x="840" y="710" as="targetPoint" />
          </mxGeometry>
        </mxCell>
        <mxCell id="Lc9naHNw8LYEpgLvx75e-95" value="" style="endArrow=none;html=1;rounded=0;entryX=0;entryY=0.5;entryDx=0;entryDy=0;" edge="1" target="Lc9naHNw8LYEpgLvx75e-91" parent="1">
          <mxGeometry width="50" height="50" relative="1" as="geometry">
            <mxPoint x="600" y="910" as="sourcePoint" />
            <mxPoint x="840" y="870" as="targetPoint" />
          </mxGeometry>
        </mxCell>
        <mxCell id="Lc9naHNw8LYEpgLvx75e-96" value="" style="endArrow=none;html=1;rounded=0;entryX=0.5;entryY=1;entryDx=0;entryDy=0;exitX=0.5;exitY=0;exitDx=0;exitDy=0;" edge="1" source="Lc9naHNw8LYEpgLvx75e-88" parent="1">
          <mxGeometry width="50" height="50" relative="1" as="geometry">
            <mxPoint x="790" y="610" as="sourcePoint" />
            <mxPoint x="780" y="520" as="targetPoint" />
          </mxGeometry>
        </mxCell>
        <mxCell id="Lc9naHNw8LYEpgLvx75e-97" value="" style="endArrow=none;html=1;rounded=0;" edge="1" parent="1">
          <mxGeometry width="50" height="50" relative="1" as="geometry">
            <mxPoint x="290" y="1320" as="sourcePoint" />
            <mxPoint x="290" y="610" as="targetPoint" />
          </mxGeometry>
        </mxCell>
        <mxCell id="Lc9naHNw8LYEpgLvx75e-98" value="" style="endArrow=none;html=1;rounded=0;entryX=0.5;entryY=1;entryDx=0;entryDy=0;exitX=0.5;exitY=0;exitDx=0;exitDy=0;" edge="1" source="Lc9naHNw8LYEpgLvx75e-88" parent="1">
          <mxGeometry width="50" height="50" relative="1" as="geometry">
            <mxPoint x="779.9999999999998" y="580" as="sourcePoint" />
            <mxPoint x="780" y="520" as="targetPoint" />
            <Array as="points">
              <mxPoint x="780" y="550" />
            </Array>
          </mxGeometry>
        </mxCell>
        <mxCell id="Lc9naHNw8LYEpgLvx75e-99" value="" style="rounded=0;whiteSpace=wrap;html=1;" vertex="1" parent="1">
          <mxGeometry x="410" y="990" width="120" height="60" as="geometry" />
        </mxCell>
        <mxCell id="Lc9naHNw8LYEpgLvx75e-100" value="" style="rounded=0;whiteSpace=wrap;html=1;" vertex="1" parent="1">
          <mxGeometry x="410" y="1090" width="120" height="60" as="geometry" />
        </mxCell>
        <mxCell id="Lc9naHNw8LYEpgLvx75e-101" value="" style="rounded=0;whiteSpace=wrap;html=1;" vertex="1" parent="1">
          <mxGeometry x="410" y="1190" width="120" height="60" as="geometry" />
        </mxCell>
        <mxCell id="Lc9naHNw8LYEpgLvx75e-102" value="" style="endArrow=none;html=1;rounded=0;entryX=0;entryY=0.5;entryDx=0;entryDy=0;" edge="1" target="Lc9naHNw8LYEpgLvx75e-99" parent="1">
          <mxGeometry width="50" height="50" relative="1" as="geometry">
            <mxPoint x="290.00000000000045" y="1020" as="sourcePoint" />
            <mxPoint x="530" y="1020" as="targetPoint" />
          </mxGeometry>
        </mxCell>
        <mxCell id="Lc9naHNw8LYEpgLvx75e-103" value="" style="endArrow=none;html=1;rounded=0;entryX=0;entryY=0.5;entryDx=0;entryDy=0;" edge="1" target="Lc9naHNw8LYEpgLvx75e-100" parent="1">
          <mxGeometry width="50" height="50" relative="1" as="geometry">
            <mxPoint x="290.00000000000045" y="1120" as="sourcePoint" />
            <mxPoint x="530" y="1020" as="targetPoint" />
          </mxGeometry>
        </mxCell>
        <mxCell id="Lc9naHNw8LYEpgLvx75e-104" value="" style="endArrow=none;html=1;rounded=0;entryX=0;entryY=0.5;entryDx=0;entryDy=0;" edge="1" target="Lc9naHNw8LYEpgLvx75e-101" parent="1">
          <mxGeometry width="50" height="50" relative="1" as="geometry">
            <mxPoint x="290" y="1220" as="sourcePoint" />
            <mxPoint x="530" y="1180" as="targetPoint" />
          </mxGeometry>
        </mxCell>
        <mxCell id="Lc9naHNw8LYEpgLvx75e-105" value="" style="rounded=0;whiteSpace=wrap;html=1;" vertex="1" parent="1">
          <mxGeometry x="410" y="1290" width="120" height="60" as="geometry" />
        </mxCell>
        <mxCell id="Lc9naHNw8LYEpgLvx75e-106" value="" style="endArrow=none;html=1;rounded=0;entryX=0;entryY=0.5;entryDx=0;entryDy=0;" edge="1" target="Lc9naHNw8LYEpgLvx75e-105" parent="1">
          <mxGeometry width="50" height="50" relative="1" as="geometry">
            <mxPoint x="290.00000000000045" y="1320" as="sourcePoint" />
            <mxPoint x="530" y="1280" as="targetPoint" />
          </mxGeometry>
        </mxCell>
        <mxCell id="Lc9naHNw8LYEpgLvx75e-107" value="" style="rounded=0;whiteSpace=wrap;html=1;" vertex="1" parent="1">
          <mxGeometry x="720" y="980" width="120" height="60" as="geometry" />
        </mxCell>
        <mxCell id="Lc9naHNw8LYEpgLvx75e-108" value="" style="endArrow=none;html=1;rounded=0;entryX=0;entryY=0.5;entryDx=0;entryDy=0;" edge="1" target="Lc9naHNw8LYEpgLvx75e-107" parent="1">
          <mxGeometry width="50" height="50" relative="1" as="geometry">
            <mxPoint x="600.0000000000005" y="1010" as="sourcePoint" />
            <mxPoint x="840" y="970" as="targetPoint" />
          </mxGeometry>
        </mxCell>
        <mxCell id="Lc9naHNw8LYEpgLvx75e-112" value="" style="edgeStyle=orthogonalEdgeStyle;rounded=0;orthogonalLoop=1;jettySize=auto;html=1;" edge="1" source="Lc9naHNw8LYEpgLvx75e-113" parent="1">
          <mxGeometry relative="1" as="geometry">
            <mxPoint x="1330" y="490" as="targetPoint" />
            <Array as="points">
              <mxPoint x="1330" y="450" />
              <mxPoint x="1330" y="450" />
            </Array>
          </mxGeometry>
        </mxCell>
        <mxCell id="Lc9naHNw8LYEpgLvx75e-113" value="" style="rounded=1;whiteSpace=wrap;html=1;" vertex="1" parent="1">
          <mxGeometry x="1270" y="370" width="120" height="60" as="geometry" />
        </mxCell>
        <mxCell id="Lc9naHNw8LYEpgLvx75e-114" value="" style="rounded=0;whiteSpace=wrap;html=1;" vertex="1" parent="1">
          <mxGeometry x="1430" y="460" width="120" height="60" as="geometry" />
        </mxCell>
        <mxCell id="Lc9naHNw8LYEpgLvx75e-115" value="" style="rounded=0;whiteSpace=wrap;html=1;" vertex="1" parent="1">
          <mxGeometry x="1120" y="460" width="120" height="60" as="geometry" />
        </mxCell>
        <mxCell id="Lc9naHNw8LYEpgLvx75e-116" value="" style="endArrow=none;html=1;rounded=0;entryX=0;entryY=0.5;entryDx=0;entryDy=0;exitX=1;exitY=0.5;exitDx=0;exitDy=0;" edge="1" source="Lc9naHNw8LYEpgLvx75e-115" target="Lc9naHNw8LYEpgLvx75e-114" parent="1">
          <mxGeometry width="50" height="50" relative="1" as="geometry">
            <mxPoint x="1160" y="470" as="sourcePoint" />
            <mxPoint x="1190" y="490" as="targetPoint" />
            <Array as="points">
              <mxPoint x="1290" y="490" />
            </Array>
          </mxGeometry>
        </mxCell>
        <mxCell id="Lc9naHNw8LYEpgLvx75e-117" value="" style="rounded=0;whiteSpace=wrap;html=1;" vertex="1" parent="1">
          <mxGeometry x="1120" y="580" width="120" height="60" as="geometry" />
        </mxCell>
        <mxCell id="Lc9naHNw8LYEpgLvx75e-118" value="" style="rounded=0;whiteSpace=wrap;html=1;" vertex="1" parent="1">
          <mxGeometry x="1120" y="680" width="120" height="60" as="geometry" />
        </mxCell>
        <mxCell id="Lc9naHNw8LYEpgLvx75e-119" value="" style="rounded=0;whiteSpace=wrap;html=1;" vertex="1" parent="1">
          <mxGeometry x="1120" y="780" width="120" height="60" as="geometry" />
        </mxCell>
        <mxCell id="Lc9naHNw8LYEpgLvx75e-120" value="" style="rounded=0;whiteSpace=wrap;html=1;" vertex="1" parent="1">
          <mxGeometry x="1120" y="880" width="120" height="60" as="geometry" />
        </mxCell>
        <mxCell id="Lc9naHNw8LYEpgLvx75e-121" value="" style="endArrow=none;html=1;rounded=0;entryX=0.5;entryY=1;entryDx=0;entryDy=0;exitX=0.5;exitY=0;exitDx=0;exitDy=0;" edge="1" source="Lc9naHNw8LYEpgLvx75e-117" target="Lc9naHNw8LYEpgLvx75e-115" parent="1">
          <mxGeometry width="50" height="50" relative="1" as="geometry">
            <mxPoint x="1190" y="610" as="sourcePoint" />
            <mxPoint x="1240" y="560" as="targetPoint" />
          </mxGeometry>
        </mxCell>
        <mxCell id="Lc9naHNw8LYEpgLvx75e-122" value="" style="rounded=0;whiteSpace=wrap;html=1;" vertex="1" parent="1">
          <mxGeometry x="1430" y="580" width="120" height="60" as="geometry" />
        </mxCell>
        <mxCell id="Lc9naHNw8LYEpgLvx75e-123" value="" style="rounded=0;whiteSpace=wrap;html=1;" vertex="1" parent="1">
          <mxGeometry x="1430" y="680" width="120" height="60" as="geometry" />
        </mxCell>
        <mxCell id="Lc9naHNw8LYEpgLvx75e-124" value="" style="rounded=0;whiteSpace=wrap;html=1;" vertex="1" parent="1">
          <mxGeometry x="1430" y="780" width="120" height="60" as="geometry" />
        </mxCell>
        <mxCell id="Lc9naHNw8LYEpgLvx75e-125" value="" style="rounded=0;whiteSpace=wrap;html=1;" vertex="1" parent="1">
          <mxGeometry x="1430" y="880" width="120" height="60" as="geometry" />
        </mxCell>
        <mxCell id="Lc9naHNw8LYEpgLvx75e-126" value="" style="endArrow=none;html=1;rounded=0;entryX=0;entryY=0.5;entryDx=0;entryDy=0;" edge="1" target="Lc9naHNw8LYEpgLvx75e-122" parent="1">
          <mxGeometry width="50" height="50" relative="1" as="geometry">
            <mxPoint x="1310" y="610" as="sourcePoint" />
            <mxPoint x="1550" y="710" as="targetPoint" />
          </mxGeometry>
        </mxCell>
        <mxCell id="Lc9naHNw8LYEpgLvx75e-127" value="" style="endArrow=none;html=1;rounded=0;entryX=0;entryY=0.5;entryDx=0;entryDy=0;" edge="1" target="Lc9naHNw8LYEpgLvx75e-123" parent="1">
          <mxGeometry width="50" height="50" relative="1" as="geometry">
            <mxPoint x="1310" y="710" as="sourcePoint" />
            <mxPoint x="1550" y="710" as="targetPoint" />
          </mxGeometry>
        </mxCell>
        <mxCell id="Lc9naHNw8LYEpgLvx75e-128" value="" style="endArrow=none;html=1;rounded=0;entryX=0;entryY=0.5;entryDx=0;entryDy=0;" edge="1" target="Lc9naHNw8LYEpgLvx75e-124" parent="1">
          <mxGeometry width="50" height="50" relative="1" as="geometry">
            <mxPoint x="1310" y="810" as="sourcePoint" />
            <mxPoint x="1550" y="710" as="targetPoint" />
          </mxGeometry>
        </mxCell>
        <mxCell id="Lc9naHNw8LYEpgLvx75e-129" value="" style="endArrow=none;html=1;rounded=0;entryX=0;entryY=0.5;entryDx=0;entryDy=0;" edge="1" target="Lc9naHNw8LYEpgLvx75e-125" parent="1">
          <mxGeometry width="50" height="50" relative="1" as="geometry">
            <mxPoint x="1310" y="910" as="sourcePoint" />
            <mxPoint x="1550" y="870" as="targetPoint" />
          </mxGeometry>
        </mxCell>
        <mxCell id="Lc9naHNw8LYEpgLvx75e-130" value="" style="endArrow=none;html=1;rounded=0;entryX=0.5;entryY=1;entryDx=0;entryDy=0;exitX=0.5;exitY=0;exitDx=0;exitDy=0;" edge="1" source="Lc9naHNw8LYEpgLvx75e-122" parent="1">
          <mxGeometry width="50" height="50" relative="1" as="geometry">
            <mxPoint x="1500" y="610" as="sourcePoint" />
            <mxPoint x="1490" y="520" as="targetPoint" />
          </mxGeometry>
        </mxCell>
        <mxCell id="Lc9naHNw8LYEpgLvx75e-131" value="" style="endArrow=none;html=1;rounded=0;entryX=0.5;entryY=1;entryDx=0;entryDy=0;exitX=0.5;exitY=0;exitDx=0;exitDy=0;" edge="1" source="Lc9naHNw8LYEpgLvx75e-122" parent="1">
          <mxGeometry width="50" height="50" relative="1" as="geometry">
            <mxPoint x="1489.9999999999998" y="580" as="sourcePoint" />
            <mxPoint x="1490" y="520" as="targetPoint" />
            <Array as="points">
              <mxPoint x="1490" y="550" />
            </Array>
          </mxGeometry>
        </mxCell>
        <mxCell id="Lc9naHNw8LYEpgLvx75e-133" value="" style="endArrow=none;html=1;rounded=0;" edge="1" parent="1">
          <mxGeometry width="50" height="50" relative="1" as="geometry">
            <mxPoint x="1310" y="910" as="sourcePoint" />
            <mxPoint x="1310" y="550" as="targetPoint" />
          </mxGeometry>
        </mxCell>
        <mxCell id="Lc9naHNw8LYEpgLvx75e-134" value="" style="endArrow=none;html=1;rounded=0;" edge="1" parent="1">
          <mxGeometry width="50" height="50" relative="1" as="geometry">
            <mxPoint x="1310" y="550" as="sourcePoint" />
            <mxPoint x="1490" y="550" as="targetPoint" />
          </mxGeometry>
        </mxCell>
        <mxCell id="Lc9naHNw8LYEpgLvx75e-136" value="" style="endArrow=none;html=1;rounded=0;entryX=0;entryY=0.5;entryDx=0;entryDy=0;" edge="1" parent="1">
          <mxGeometry width="50" height="50" relative="1" as="geometry">
            <mxPoint x="1000" y="610" as="sourcePoint" />
            <mxPoint x="1120" y="610" as="targetPoint" />
          </mxGeometry>
        </mxCell>
        <mxCell id="Lc9naHNw8LYEpgLvx75e-137" value="" style="endArrow=none;html=1;rounded=0;entryX=0;entryY=0.5;entryDx=0;entryDy=0;" edge="1" parent="1">
          <mxGeometry width="50" height="50" relative="1" as="geometry">
            <mxPoint x="1000" y="710" as="sourcePoint" />
            <mxPoint x="1120" y="710" as="targetPoint" />
          </mxGeometry>
        </mxCell>
        <mxCell id="Lc9naHNw8LYEpgLvx75e-138" value="" style="endArrow=none;html=1;rounded=0;entryX=0;entryY=0.5;entryDx=0;entryDy=0;" edge="1" parent="1">
          <mxGeometry width="50" height="50" relative="1" as="geometry">
            <mxPoint x="1000" y="810" as="sourcePoint" />
            <mxPoint x="1120" y="810" as="targetPoint" />
          </mxGeometry>
        </mxCell>
        <mxCell id="Lc9naHNw8LYEpgLvx75e-139" value="" style="endArrow=none;html=1;rounded=0;entryX=0;entryY=0.5;entryDx=0;entryDy=0;" edge="1" parent="1">
          <mxGeometry width="50" height="50" relative="1" as="geometry">
            <mxPoint x="1000" y="910" as="sourcePoint" />
            <mxPoint x="1120" y="910" as="targetPoint" />
          </mxGeometry>
        </mxCell>
        <mxCell id="Lc9naHNw8LYEpgLvx75e-140" value="" style="endArrow=none;html=1;rounded=0;" edge="1" parent="1">
          <mxGeometry width="50" height="50" relative="1" as="geometry">
            <mxPoint x="1000" y="910" as="sourcePoint" />
            <mxPoint x="1000" y="550" as="targetPoint" />
          </mxGeometry>
        </mxCell>
        <mxCell id="Lc9naHNw8LYEpgLvx75e-141" value="" style="endArrow=none;html=1;rounded=0;" edge="1" parent="1">
          <mxGeometry width="50" height="50" relative="1" as="geometry">
            <mxPoint x="1180" y="550" as="sourcePoint" />
            <mxPoint x="1000" y="550" as="targetPoint" />
          </mxGeometry>
        </mxCell>
        <mxCell id="Lc9naHNw8LYEpgLvx75e-275" value="" style="edgeStyle=orthogonalEdgeStyle;rounded=0;orthogonalLoop=1;jettySize=auto;html=1;" edge="1" source="Lc9naHNw8LYEpgLvx75e-276" target="Lc9naHNw8LYEpgLvx75e-278" parent="1">
          <mxGeometry relative="1" as="geometry" />
        </mxCell>
        <mxCell id="Lc9naHNw8LYEpgLvx75e-276" value="&lt;font style=&quot;vertical-align: inherit;&quot;&gt;&lt;font style=&quot;vertical-align: inherit;&quot;&gt;Comisión 0&lt;/font&gt;&lt;/font&gt;" style="rounded=1;whiteSpace=wrap;html=1;" vertex="1" parent="1">
          <mxGeometry x="-1116" y="215" width="120" height="60" as="geometry" />
        </mxCell>
        <mxCell id="Lc9naHNw8LYEpgLvx75e-298" value="" style="edgeStyle=orthogonalEdgeStyle;rounded=0;orthogonalLoop=1;jettySize=auto;html=1;" edge="1" parent="1" source="Lc9naHNw8LYEpgLvx75e-278" target="Lc9naHNw8LYEpgLvx75e-279">
          <mxGeometry relative="1" as="geometry">
            <Array as="points">
              <mxPoint x="-1056" y="455" />
              <mxPoint x="-1056" y="455" />
            </Array>
          </mxGeometry>
        </mxCell>
        <mxCell id="Lc9naHNw8LYEpgLvx75e-278" value="Darwin" style="rounded=1;whiteSpace=wrap;html=1;" vertex="1" parent="1">
          <mxGeometry x="-1116" y="365" width="120" height="60" as="geometry" />
        </mxCell>
        <mxCell id="Lc9naHNw8LYEpgLvx75e-279" value="" style="rounded=0;whiteSpace=wrap;html=1;" vertex="1" parent="1">
          <mxGeometry x="-1110" y="455" width="120" height="60" as="geometry" />
        </mxCell>
        <mxCell id="Lc9naHNw8LYEpgLvx75e-281" value="" style="endArrow=none;html=1;rounded=0;" edge="1" parent="1">
          <mxGeometry width="50" height="50" relative="1" as="geometry">
            <mxPoint x="-1230" y="1005" as="sourcePoint" />
            <mxPoint x="-1050.000000000001" y="535" as="targetPoint" />
            <Array as="points">
              <mxPoint x="-1230" y="535" />
              <mxPoint x="-1180" y="535" />
            </Array>
          </mxGeometry>
        </mxCell>
        <mxCell id="Lc9naHNw8LYEpgLvx75e-283" value="" style="rounded=0;whiteSpace=wrap;html=1;" vertex="1" parent="1">
          <mxGeometry x="-1110" y="575" width="120" height="60" as="geometry" />
        </mxCell>
        <mxCell id="Lc9naHNw8LYEpgLvx75e-284" value="" style="rounded=0;whiteSpace=wrap;html=1;" vertex="1" parent="1">
          <mxGeometry x="-1110" y="675" width="120" height="60" as="geometry" />
        </mxCell>
        <mxCell id="Lc9naHNw8LYEpgLvx75e-285" value="" style="rounded=0;whiteSpace=wrap;html=1;" vertex="1" parent="1">
          <mxGeometry x="-1110" y="775" width="120" height="60" as="geometry" />
        </mxCell>
        <mxCell id="Lc9naHNw8LYEpgLvx75e-286" value="" style="rounded=0;whiteSpace=wrap;html=1;" vertex="1" parent="1">
          <mxGeometry x="-1110" y="875" width="120" height="60" as="geometry" />
        </mxCell>
        <mxCell id="Lc9naHNw8LYEpgLvx75e-287" value="" style="endArrow=none;html=1;rounded=0;entryX=0;entryY=0.5;entryDx=0;entryDy=0;" edge="1" target="Lc9naHNw8LYEpgLvx75e-283" parent="1">
          <mxGeometry width="50" height="50" relative="1" as="geometry">
            <mxPoint x="-1230" y="605" as="sourcePoint" />
            <mxPoint x="-990" y="705" as="targetPoint" />
          </mxGeometry>
        </mxCell>
        <mxCell id="Lc9naHNw8LYEpgLvx75e-288" value="" style="endArrow=none;html=1;rounded=0;entryX=0;entryY=0.5;entryDx=0;entryDy=0;" edge="1" target="Lc9naHNw8LYEpgLvx75e-284" parent="1">
          <mxGeometry width="50" height="50" relative="1" as="geometry">
            <mxPoint x="-1230" y="705" as="sourcePoint" />
            <mxPoint x="-990" y="705" as="targetPoint" />
          </mxGeometry>
        </mxCell>
        <mxCell id="Lc9naHNw8LYEpgLvx75e-289" value="" style="endArrow=none;html=1;rounded=0;entryX=0;entryY=0.5;entryDx=0;entryDy=0;" edge="1" target="Lc9naHNw8LYEpgLvx75e-285" parent="1">
          <mxGeometry width="50" height="50" relative="1" as="geometry">
            <mxPoint x="-1230" y="805" as="sourcePoint" />
            <mxPoint x="-990" y="705" as="targetPoint" />
          </mxGeometry>
        </mxCell>
        <mxCell id="Lc9naHNw8LYEpgLvx75e-290" value="" style="endArrow=none;html=1;rounded=0;entryX=0;entryY=0.5;entryDx=0;entryDy=0;" edge="1" target="Lc9naHNw8LYEpgLvx75e-286" parent="1">
          <mxGeometry width="50" height="50" relative="1" as="geometry">
            <mxPoint x="-1230" y="905" as="sourcePoint" />
            <mxPoint x="-990" y="865" as="targetPoint" />
          </mxGeometry>
        </mxCell>
        <mxCell id="Lc9naHNw8LYEpgLvx75e-291" value="" style="endArrow=none;html=1;rounded=0;entryX=0.5;entryY=1;entryDx=0;entryDy=0;exitX=0.5;exitY=0;exitDx=0;exitDy=0;" edge="1" source="Lc9naHNw8LYEpgLvx75e-283" parent="1">
          <mxGeometry width="50" height="50" relative="1" as="geometry">
            <mxPoint x="-1040" y="605" as="sourcePoint" />
            <mxPoint x="-1050.000000000001" y="515" as="targetPoint" />
          </mxGeometry>
        </mxCell>
        <mxCell id="Lc9naHNw8LYEpgLvx75e-292" value="" style="endArrow=none;html=1;rounded=0;entryX=0.5;entryY=1;entryDx=0;entryDy=0;exitX=0.5;exitY=0;exitDx=0;exitDy=0;" edge="1" source="Lc9naHNw8LYEpgLvx75e-283" parent="1">
          <mxGeometry width="50" height="50" relative="1" as="geometry">
            <mxPoint x="-1050.0000000000002" y="575" as="sourcePoint" />
            <mxPoint x="-1050.000000000001" y="515" as="targetPoint" />
            <Array as="points">
              <mxPoint x="-1050" y="545" />
            </Array>
          </mxGeometry>
        </mxCell>
        <mxCell id="Lc9naHNw8LYEpgLvx75e-293" value="" style="rounded=0;whiteSpace=wrap;html=1;" vertex="1" parent="1">
          <mxGeometry x="-1110" y="975" width="120" height="60" as="geometry" />
        </mxCell>
        <mxCell id="Lc9naHNw8LYEpgLvx75e-294" value="" style="endArrow=none;html=1;rounded=0;entryX=0;entryY=0.5;entryDx=0;entryDy=0;" edge="1" target="Lc9naHNw8LYEpgLvx75e-293" parent="1">
          <mxGeometry width="50" height="50" relative="1" as="geometry">
            <mxPoint x="-1230" y="1005" as="sourcePoint" />
            <mxPoint x="-990" y="965" as="targetPoint" />
          </mxGeometry>
        </mxCell>
        <mxCell id="Lc9naHNw8LYEpgLvx75e-295" value="" style="endArrow=none;html=1;rounded=0;entryX=0;entryY=0.5;entryDx=0;entryDy=0;exitX=1;exitY=0.5;exitDx=0;exitDy=0;" edge="1" parent="1" source="Lc9naHNw8LYEpgLvx75e-276" target="Lc9naHNw8LYEpgLvx75e-3">
          <mxGeometry width="50" height="50" relative="1" as="geometry">
            <mxPoint x="-500" y="965" as="sourcePoint" />
            <mxPoint x="-450" y="915" as="targetPoint" />
          </mxGeometry>
        </mxCell>
        <mxCell id="Lc9naHNw8LYEpgLvx75e-296" value="" style="endArrow=none;html=1;rounded=0;entryX=1;entryY=0.5;entryDx=0;entryDy=0;exitX=0;exitY=0.5;exitDx=0;exitDy=0;" edge="1" parent="1" source="Lc9naHNw8LYEpgLvx75e-2" target="Lc9naHNw8LYEpgLvx75e-3">
          <mxGeometry width="50" height="50" relative="1" as="geometry">
            <mxPoint x="-490" y="970" as="sourcePoint" />
            <mxPoint x="-440" y="920" as="targetPoint" />
          </mxGeometry>
        </mxCell>
        <mxCell id="Lc9naHNw8LYEpgLvx75e-297" value="" style="endArrow=none;html=1;rounded=0;entryX=1;entryY=0.5;entryDx=0;entryDy=0;" edge="1" parent="1" target="Lc9naHNw8LYEpgLvx75e-2">
          <mxGeometry width="50" height="50" relative="1" as="geometry">
            <mxPoint x="1270" y="245" as="sourcePoint" />
            <mxPoint x="360" y="920" as="targetPoint" />
          </mxGeometry>
        </mxCell>
      </root>
    </mxGraphModel>
  </diagram>
</mxfile>
